<svg xmlns="http://www.w3.org/2000/svg" width="148.5" height="122" viewBox="0 0 148.5 122"><g><g><path d="M20 51v20m10 -20v20m-10 -10h20" transform="translate(.5 .5)"/></g><g><path d="M40 61h0" transform="translate(.5 .5)"/><path d="M108.5 61h0" transform="translate(.5 .5)"/><path d="M40 61a10 10 0 0 0 10 -10v-10a10 10 0 0 1 10 -10" transform="translate(.5 .5)"/><g class="terminal" transform="translate(.5 .5)"><path d="M60 31h0"/><path d="M88.5 31h0"/><rect width="28.5" height="22" x="60" y="20" rx="10" ry="10"/><text x="74.25" y="35">1</text></g><path d="M88.5 31a10 10 0 0 1 10 10v10a10 10 0 0 0 10 10" transform="translate(.5 .5)"/><path d="M40 61h20" transform="translate(.5 .5)"/><g class="terminal" transform="translate(.5 .5)"><path d="M60 61h0"/><path d="M88.5 61h0"/><rect width="28.5" height="22" x="60" y="50" rx="10" ry="10"/><text x="74.25" y="65">2</text></g><path d="M88.5 61h20" transform="translate(.5 .5)"/><path d="M40 61a10 10 0 0 1 10 10v10a10 10 0 0 0 10 10" transform="translate(.5 .5)"/><g class="terminal" transform="translate(.5 .5)"><path d="M60 91h0"/><path d="M88.5 91h0"/><rect width="28.5" height="22" x="60" y="80" rx="10" ry="10"/><text x="74.25" y="95">3</text></g><path d="M88.5 91a10 10 0 0 0 10 -10v-10a10 10 0 0 1 10 -10" transform="translate(.5 .5)"/></g><path d="M 108.5 61 h 20 m -10 -10 v 20 m 10 -20 v 20" transform="translate(.5 .5)"/></g><style>svg{background-color:#f5f2f0}path,rect{stroke-width:3;stroke:#000;fill:transparent}rect{fill:#cfc}text{font:700 14px monospace;text-anchor:middle;white-space:pre}</style></svg>