<svg xmlns="http://www.w3.org/2000/svg" width="359" height="124" class="railroad-diagram" viewBox="0 0 359 124"><g><g><path d="M20 45v20m10 -20v20m-10 -10h20" transform="translate(.5 .5)"/></g><path d="M40 55h10" transform="translate(.5 .5)"/><g class="terminal" transform="translate(.5 .5)"><path d="M50 55h0"/><path d="M95.5 55h0"/><rect width="45.5" height="22" x="50" y="44" rx="10" ry="10"/><text x="72.75" y="59">foo</text></g><path d="M95.5 55h10" transform="translate(.5 .5)"/><path d="M105.5 55h10" transform="translate(.5 .5)"/><g transform="translate(.5 .5)"><path d="M115.5 55h0"/><path d="M243.5 55h0"/><rect width="128" height="68" x="115.5" y="36" class="group-box" rx="10" ry="10"/><g><path d="M115.5 55h0"/><path d="M243.5 55h0"/><path d="M115.5 55h20"/><g class="non-terminal"><path d="M135.5 55h0"/><path d="M223.5 55h0"/><rect width="88" height="22" x="135.5" y="44"/><text x="179.5" y="59">option 1</text></g><path d="M223.5 55h20"/><path d="M115.5 55a10 10 0 0 1 10 10v10a10 10 0 0 0 10 10"/><g class="non-terminal"><path d="M135.5 85h8.5"/><path d="M215 85h8.5"/><rect width="71" height="22" x="144" y="74"/><text x="179.5" y="89">or two</text></g><path d="M223.5 85a10 10 0 0 0 10 -10v-10a10 10 0 0 1 10 -10"/></g><g><path d="M115.5 28h0"/><path d="M160.5 28h0"/><text x="138" y="33" class="comment">label</text></g></g><path d="M243.5 55h10" transform="translate(.5 .5)"/><path d="M253.5 55h10" transform="translate(.5 .5)"/><g class="terminal" transform="translate(.5 .5)"><path d="M263.5 55h0"/><path d="M309 55h0"/><rect width="45.5" height="22" x="263.5" y="44" rx="10" ry="10"/><text x="286.25" y="59">bar</text></g><path d="M309 55h10" transform="translate(.5 .5)"/><path d="M 319 55 h 20 m -10 -10 v 20 m 10 -20 v 20" transform="translate(.5 .5)"/></g><style>svg{background-color:#f5f2f0}path,rect{stroke-width:3;stroke:#000;fill:transparent}rect{fill:#cfc}text{font:700 14px monospace;text-anchor:middle;white-space:pre}text.comment{font:italic 12px monospace}rect.group-box{stroke:gray;stroke-dasharray:10 5;fill:none}</style></svg>