<svg xmlns="http://www.w3.org/2000/svg" width="251" height="91" viewBox="0 0 251 91"><g><g><path d="M20 30v20m10 -20v20m-10 -10h20" transform="translate(.5 .5)"/></g><g><path d="M40 40h0" transform="translate(.5 .5)"/><path d="M125.5 40h0" transform="translate(.5 .5)"/><path d="M40 40a10 10 0 0 0 10 -10v0a10 10 0 0 1 10 -10" transform="translate(.5 .5)"/><g><path d="M60 20h45.5" transform="translate(.5 .5)"/></g><path d="M105.5 20a10 10 0 0 1 10 10v0a10 10 0 0 0 10 10" transform="translate(.5 .5)"/><path d="M40 40h20" transform="translate(.5 .5)"/><g class="terminal" transform="translate(.5 .5)"><path d="M60 40h0"/><path d="M105.5 40h0"/><rect width="45.5" height="22" x="60" y="29" rx="10" ry="10"/><text x="82.75" y="44">foo</text></g><path d="M105.5 40h20" transform="translate(.5 .5)"/></g><g><path d="M125.5 40h0" transform="translate(.5 .5)"/><path d="M211 40h0" transform="translate(.5 .5)"/><path d="M125.5 40h20" transform="translate(.5 .5)"/><g><path d="M145.5 40h45.5" transform="translate(.5 .5)"/></g><path d="M191 40h20" transform="translate(.5 .5)"/><path d="M125.5 40a10 10 0 0 1 10 10v0a10 10 0 0 0 10 10" transform="translate(.5 .5)"/><g class="terminal" transform="translate(.5 .5)"><path d="M145.5 60h0"/><path d="M191 60h0"/><rect width="45.5" height="22" x="145.5" y="49" rx="10" ry="10"/><text x="168.25" y="64">bar</text></g><path d="M191 60a10 10 0 0 0 10 -10v0a10 10 0 0 1 10 -10" transform="translate(.5 .5)"/></g><path d="M 211 40 h 20 m -10 -10 v 20 m 10 -20 v 20" transform="translate(.5 .5)"/></g><style>svg{background-color:#f5f2f0}path,rect{stroke-width:3;stroke:#000;fill:transparent}rect{fill:#cfc}text{font:700 14px monospace;text-anchor:middle;white-space:pre}</style></svg>