<svg xmlns="http://www.w3.org/2000/svg" width="265.5" height="80" viewBox="0 0 265.5 80"><g><g><path d="M20 30v20m10 -20v20m-10 -10h20" transform="translate(.5 .5)"/></g><g><path d="M40 40h0" transform="translate(.5 .5)"/><path d="M225.5 40h0" transform="translate(.5 .5)"/><path d="M40 40a10 10 0 0 0 10 -10v0a10 10 0 0 1 10 -10h28.5a10 10 0 0 1 10 10v0a10 10 0 0 0 10 10" transform="translate(.5 .5)"/><path d="M40 40h20" transform="translate(.5 .5)"/><g class="terminal" transform="translate(.5 .5)"><path d="M60 40h0"/><path d="M88.5 40h0"/><rect width="28.5" height="22" x="60" y="29" rx="10" ry="10"/><text x="74.25" y="44">1</text></g><path d="M88.5 20h68.5a10 10 0 0 1 10 10v0a10 10 0 0 0 10 10" transform="translate(.5 .5)"/><path d="M88.5 40h20" transform="translate(.5 .5)"/><g class="terminal" transform="translate(.5 .5)"><path d="M108.5 40h0"/><path d="M137 40h0"/><rect width="28.5" height="22" x="108.5" y="29" rx="10" ry="10"/><text x="122.75" y="44">2</text></g><path d="M137 40h20" transform="translate(.5 .5)"/><path d="M88.5 40a10 10 0 0 1 10 10v0a10 10 0 0 0 10 10h28.5a10 10 0 0 0 10 -10v0a10 10 0 0 1 10 -10" transform="translate(.5 .5)"/><path d="M157 40h20" transform="translate(.5 .5)"/><g class="terminal" transform="translate(.5 .5)"><path d="M177 40h0"/><path d="M205.5 40h0"/><rect width="28.5" height="22" x="177" y="29" rx="10" ry="10"/><text x="191.25" y="44">3</text></g><path d="M205.5 40h20" transform="translate(.5 .5)"/><path d="M157 40a10 10 0 0 1 10 10v0a10 10 0 0 0 10 10h28.5a10 10 0 0 0 10 -10v0a10 10 0 0 1 10 -10" transform="translate(.5 .5)"/></g><path d="M 225.5 40 h 20 m -10 -10 v 20 m 10 -20 v 20" transform="translate(.5 .5)"/></g><style>svg{background-color:#f5f2f0}path,rect{stroke-width:3;stroke:#000;fill:transparent}rect{fill:#cfc}text{font:700 14px monospace;text-anchor:middle;white-space:pre}</style></svg>