<svg xmlns="http://www.w3.org/2000/svg" width="165.5" height="92" viewBox="0 0 165.5 92"><g><g><path d="M20 21v20m10 -20v20m-10 -10h20" transform="translate(.5 .5)"/></g><path d="M40 31h10" transform="translate(.5 .5)"/><g><path d="M50 31h0" transform="translate(.5 .5)"/><path d="M115.5 31h0" transform="translate(.5 .5)"/><path d="M50 31h10" transform="translate(.5 .5)"/><g class="terminal" transform="translate(.5 .5)"><path d="M60 31h0"/><path d="M105.5 31h0"/><rect width="45.5" height="22" x="60" y="20" rx="10" ry="10"/><text x="82.75" y="35">foo</text></g><path d="M105.5 31h10" transform="translate(.5 .5)"/><path d="M60 31a10 10 0 0 0 -10 10v10a10 10 0 0 0 10 10" transform="translate(.5 .5)"/><g><path d="M60 61h7.25" transform="translate(.5 .5)"/><path d="M98.25 61h7.25" transform="translate(.5 .5)"/><text x="82.75" y="66" class="comment" transform="translate(.5 .5)">bar</text></g><path d="M105.5 61a10 10 0 0 0 10 -10v-10a10 10 0 0 0 -10 -10" transform="translate(.5 .5)"/></g><path d="M115.5 31h10" transform="translate(.5 .5)"/><path d="M 125.5 31 h 20 m -10 -10 v 20 m 10 -20 v 20" transform="translate(.5 .5)"/></g><style>svg{background-color:#f5f2f0}path,rect{stroke-width:3;stroke:#000;fill:transparent}rect{fill:#cfc}text{font:700 14px monospace;text-anchor:middle;white-space:pre}text.comment{font:italic 12px monospace}</style></svg>