<svg xmlns="http://www.w3.org/2000/svg" width="225.5" height="62" viewBox="0 0 225.5 62"><g><g><path d="M20 21v20m10 -20v20m-10 -10h20" transform="translate(.5 .5)"/></g><path d="M40 31h10" transform="translate(.5 .5)"/><g><path d="M50 31h0" transform="translate(.5 .5)"/><path d="M175.5 31h0" transform="translate(.5 .5)"/><g class="terminal" transform="translate(.5 .5)"><path d="M50 31h0"/><path d="M78.5 31h0"/><rect width="28.5" height="22" x="50" y="20" rx="10" ry="10"/><text x="64.25" y="35">1</text></g><path d="M78.5 31h10" transform="translate(.5 .5)"/><path d="M88.5 31h10" transform="translate(.5 .5)"/><g class="terminal" transform="translate(.5 .5)"><path d="M98.5 31h0"/><path d="M127 31h0"/><rect width="28.5" height="22" x="98.5" y="20" rx="10" ry="10"/><text x="112.75" y="35">2</text></g><path d="M127 31h10" transform="translate(.5 .5)"/><path d="M137 31h10" transform="translate(.5 .5)"/><g class="terminal" transform="translate(.5 .5)"><path d="M147 31h0"/><path d="M175.5 31h0"/><rect width="28.5" height="22" x="147" y="20" rx="10" ry="10"/><text x="161.25" y="35">3</text></g></g><path d="M175.5 31h10" transform="translate(.5 .5)"/><path d="M 185.5 31 h 20 m -10 -10 v 20 m 10 -20 v 20" transform="translate(.5 .5)"/></g><style>svg{background-color:#f5f2f0}path,rect{stroke-width:3;stroke:#000;fill:transparent}rect{fill:#cfc}text{font:700 14px monospace;text-anchor:middle;white-space:pre}</style></svg>