<svg xmlns="http://www.w3.org/2000/svg" width="168.5" height="142" viewBox="0 0 168.5 142"><g><g><path d="M20 21v20m10 -20v20m-10 -10h20" transform="translate(.5 .5)"/></g><path d="M40 31h10" transform="translate(.5 .5)"/><g><path d="M50 31h0" transform="translate(.5 .5)"/><path d="M50 31h10" transform="translate(.5 .5)"/><g class="terminal" transform="translate(.5 .5)"><path d="M60 31h10"/><path d="M98.5 31h10"/><rect width="28.5" height="22" x="70" y="20" rx="10" ry="10"/><text x="84.25" y="35">1</text></g><path d="M108.5 31a10 10 0 0 1 10 10v0a10 10 0 0 1 -10 10h-48.5a10 10 0 0 0 -10 10v0a10 10 0 0 0 10 10" transform="translate(.5 .5)"/><g class="terminal" transform="translate(.5 .5)"><path d="M60 71h10"/><path d="M98.5 71h10"/><rect width="28.5" height="22" x="70" y="60" rx="10" ry="10"/><text x="84.25" y="75">2</text></g><path d="M108.5 71a10 10 0 0 1 10 10v0a10 10 0 0 1 -10 10h-48.5a10 10 0 0 0 -10 10v0a10 10 0 0 0 10 10" transform="translate(.5 .5)"/><g class="terminal" transform="translate(.5 .5)"><path d="M60 111h10"/><path d="M98.5 111h10"/><rect width="28.5" height="22" x="70" y="100" rx="10" ry="10"/><text x="84.25" y="115">3</text></g><path d="M108.5 111h10" transform="translate(.5 .5)"/><path d="M118.5 111h0" transform="translate(.5 .5)"/></g><path d="M118.5 111h10" transform="translate(.5 .5)"/><path d="M 128.5 111 h 20 m -10 -10 v 20 m 10 -20 v 20" transform="translate(.5 .5)"/></g><style>svg{background-color:#f5f2f0}path,rect{stroke-width:3;stroke:#000;fill:transparent}rect{fill:#cfc}text{font:700 14px monospace;text-anchor:middle;white-space:pre}</style></svg>