<svg xmlns="http://www.w3.org/2000/svg" width="865" height="264" viewBox="0 0 432.5 132"><g><g><path d="M20 21v20m10 -20v20m-10 -10h20" transform="translate(.5 .5)"/></g><path d="M40 31h10" transform="translate(.5 .5)"/><g><path d="M50 31h0" transform="translate(.5 .5)"/><path d="M50 31h10" transform="translate(.5 .5)"/><g class="terminal" transform="translate(.5 .5)"><path d="M60 31h10"/><path d="M158 31h10"/><rect width="88" height="22" x="70" y="20" rx="10" ry="10"/><text x="114" y="35">Generate</text></g><path d="M168 31a10 10 0 0 1 10 10v0a10 10 0 0 1 -10 10h-108a10 10 0 0 0 -10 10v0a10 10 0 0 0 10 10" transform="translate(.5 .5)"/><g class="terminal" transform="translate(.5 .5)"><path d="M60 71h27"/><path d="M141 71h27"/><rect width="54" height="22" x="87" y="60" rx="10" ry="10"/><text x="114" y="75">some</text></g><path d="M168 71h10" transform="translate(.5 .5)"/><path d="M178 71h0" transform="translate(.5 .5)"/></g><path d="M178 71h10" transform="translate(.5 .5)"/><path d="M188 71h10" transform="translate(.5 .5)"/><g><path d="M198 71h0" transform="translate(.5 .5)"/><path d="M382.5 71h0" transform="translate(.5 .5)"/><path d="M198 71h10" transform="translate(.5 .5)"/><g class="non-terminal" transform="translate(.5 .5)"><path d="M208 71h0"/><path d="M372.5 71h0"/><rect width="164.5" height="22" x="208" y="60"/><text x="290.25" y="75">railroad diagrams</text></g><path d="M372.5 71h10" transform="translate(.5 .5)"/><path d="M208 71a10 10 0 0 0 -10 10v10a10 10 0 0 0 10 10" transform="translate(.5 .5)"/><g><path d="M208 101h49.25" transform="translate(.5 .5)"/><path d="M323.25 101h49.25" transform="translate(.5 .5)"/><text x="290.25" y="106" class="comment" transform="translate(.5 .5)">and more</text></g><path d="M372.5 101a10 10 0 0 0 10 -10v-10a10 10 0 0 0 -10 -10" transform="translate(.5 .5)"/></g><path d="M382.5 71h10" transform="translate(.5 .5)"/><path d="M 392.5 71 h 20 m -10 -10 v 20 m 10 -20 v 20" transform="translate(.5 .5)"/></g><style>svg{background-color:#f5f2f0}path,rect{stroke-width:3;stroke:#000;fill:transparent}rect{fill:#cfc}text{font:700 14px monospace;text-anchor:middle;white-space:pre}text.comment{font:italic 12px monospace}</style></svg>